<svg width="45" height="45" viewBox="0 0 45 45" fill="none" xmlns="http://www.w3.org/2000/svg">
<circle cx="22.5" cy="22.5" r="22.5" transform="rotate(90 22.5 22.5)" fill="#FFE68E"/>
<path d="M21.9237 17.211L12.2375 25.7752C11.9203 26.0558 11.9208 26.5101 12.2391 26.7903C12.5574 27.0702 13.0729 27.0694 13.3903 26.7888L22.5 18.7343L31.6097 26.7891C31.9272 27.0697 32.4424 27.0704 32.7607 26.7905C32.9202 26.6501 33 26.4662 33 26.2822C33 26.0987 32.9208 25.9154 32.7623 25.7753L23.0763 17.211C22.9238 17.0758 22.7163 17 22.5 17C22.2838 17 22.0765 17.0761 21.9237 17.211Z" fill="black"/>
</svg>
