<svg width="1920" height="289" viewBox="0 0 1920 289" fill="none" xmlns="http://www.w3.org/2000/svg">
<rect y="19" width="1920" height="270" fill="#DFF5B0"/>
<path d="M1917.35 100.938C1915.74 99.4095 1916.29 97.3957 1916.12 95.5829C1915.48 86.1602 1916.48 76.5626 1913.87 67.2669C1911.15 57.7989 1904.62 48.6986 1900.36 39.3433C1898.34 34.7792 1898.27 29.971 1896.04 25.4141C1894.14 21.4909 1893.24 16.5943 1881.73 15.8221C1851.57 13.8231 1821.3 11.652 1790.29 15.021C1774.12 16.7583 1758.03 18.0231 1742.35 16.1059C1737.15 15.4657 1734.68 15.6693 1729.33 16.3839C1716.98 18.0465 1703.42 17.6393 1690.4 18.1516C1685.55 18.3209 1680.17 18.2151 1675.96 19.1831C1665.81 21.4732 1658.06 21.5675 1649.65 17.8712C1634.94 11.4613 1615.62 8.84982 1594.92 8.28096C1586.32 8.0525 1577.35 8.77593 1568.86 8.36809C1559.33 7.93766 1550.08 6.61753 1540.74 5.82834C1533.59 5.1979 1523.61 9.71094 1519.06 3.88564C1518.95 3.71346 1514.01 4.35505 1511.44 4.73804C1507.63 5.28144 1503.64 6.41796 1499.92 6.37182C1480.36 5.93913 1460.4 6.04818 1441.52 4.35982C1417.56 2.26196 1391.91 5.15079 1368.9 0.790371C1367.97 0.588404 1366.04 1.65291 1364.49 1.76552C1359.03 2.30793 1353.37 3.09192 1347.89 3.10699C1337.45 3.11913 1325.69 1.00652 1316.85 2.66386C1288.81 7.92426 1261.12 5.60447 1233.32 6.04579C1222.67 6.24091 1212.02 6.14307 1201.37 6.16241C1193.09 6.21611 1183.11 7.56149 1177.06 5.95395C1168.6 3.7847 1163.5 2.67209 1156.93 7.12489C1156.03 7.74323 1150.35 8.05847 1149.92 7.66273C1141.3 0.86458 1126.55 4.66436 1115.08 5.00547C1109.19 5.15214 1106.24 6.42844 1101.8 3.65C1098.09 1.31511 1090.28 -3.1059 1085.69 4.50472C1085.3 5.10506 1081.51 5.94142 1079.85 5.76466C1068.01 4.47596 1056.37 2.94568 1044.54 1.59839C1041.01 1.19348 1037.18 1.26812 1033.56 1.10119C1033.51 8.319 1022.88 6.16677 1014 6.41786C1010.48 6.4817 1006.83 8.54492 1003.25 9.60846C1000.9 10.2772 997.431 11.6301 996.179 11.3218C993.675 10.7051 992.073 9.29424 990.581 8.05559C988.118 5.67749 990.65 1.30653 980.254 2.66632C969.654 4.0919 959.395 6.38559 948.675 7.34603C938.985 8.21186 928.845 8.03741 919.014 7.85216C911.46 7.70488 900.313 2.5202 900.952 11.7086C901.005 13.1734 894.358 15.2825 891.492 16.0864C867.531 22.7298 842.957 23.7626 818.953 17.6182C817.178 17.1521 813.336 16.6994 812.628 17.1348C805.317 20.9096 796.587 19.6887 788.304 19.3908C779.708 19.0452 779.17 21.3519 781.225 23.8616C787.932 32.1344 788.035 32.1308 771.524 35.9918C769.983 36.2802 768.66 36.8544 767.334 37.3699C765.089 38.2109 762.949 39.1068 760.706 40.0063C758.801 38.7821 755.657 37.6011 755.609 36.2534C755.581 35.4917 760.181 33.982 762.963 33.709C772.442 32.7332 775.482 30.9845 769.861 27.0738C768.59 26.2381 769.463 24.6237 769.626 23.386C770.555 17.5457 762.914 14.9961 750.268 17.021C745.333 17.8384 740.413 19.0659 735.462 19.4145C733.295 19.5487 730.855 17.8152 728.549 16.9569C730.579 15.8888 732.276 14.1869 734.542 13.9319C738.971 13.4255 743.846 13.8422 748.491 13.6216C750.764 13.5424 753.015 12.8772 755.277 12.505C753.489 11.6873 751.884 10.1593 750.022 10.1655C734.096 10.1342 718.073 10.2822 702.164 10.7195C699.891 10.7987 697.579 12.6394 695.239 13.7183C697.737 14.1592 700.141 14.8967 702.624 14.9275C706.661 15.0214 710.773 14.35 714.809 14.4439C726.092 14.7546 722.316 19.0515 721.584 21.7171C720.12 27.0481 707.13 25.2717 705.345 24.5126C698.31 21.5312 709.66 23.7168 709.504 22.2556C709.484 21.6696 708.727 20.7573 707.793 20.6726C703.534 20.1171 698.95 19.1622 694.721 19.4857C683.171 20.3577 675.94 26.3592 663.002 26.0476C662.174 26.0178 661.082 27.2879 660.173 27.9062C662.258 28.3615 664.249 29.1134 666.528 29.21C676.266 29.6918 687.015 29.5517 685.701 36.1682C685.35 37.9404 684.793 39.7198 684.34 41.4956C680.886 40.3254 677.225 39.1623 673.871 37.9299C671.252 36.9653 668.94 35.9312 666.524 34.9008C664.503 36.2032 662.376 37.4507 660.563 38.8046C659.656 39.4815 659.273 40.3163 658.472 41.0482C657.373 42.1425 656.275 43.2368 655.176 44.3311C652.866 43.3556 648.381 42.28 648.66 41.3903C650.94 32.8628 637.784 29.3321 626.051 25.1066C621.128 23.3422 617.731 20.8793 609.74 22.9766C608.203 23.3822 604.424 21.8126 601.609 21.1481C604.05 20.007 606.162 18.3494 609.037 17.7798C612.736 17.1228 617.413 17.7811 621.007 17.0691C623.06 16.6455 623.712 14.6281 625.009 13.2923C623.038 13.1263 620.951 12.6124 618.782 12.688C611.036 12.9581 603.286 13.111 595.763 13.8426C593.291 14.1048 589.227 16.1238 589.469 17.1127C590.819 23.0496 580.531 21.6483 574.146 22.3989C572.087 22.6467 569.463 21.5649 567.172 21.1168C568.479 20.0739 569.892 19.086 571.095 18.0467C572.9 16.4584 574.496 14.8188 576.3 13.2305C569.465 12.9408 562.625 12.534 555.695 12.4823C555.385 12.4931 552.923 15.9229 554.295 16.6964C563.27 21.8981 553.312 26.8213 551.838 31.8594C551.555 32.6319 546.305 33.2843 543.331 33.9747C542.26 32.956 539.522 31.5848 540.326 30.9115C546.633 25.1182 536.714 25.3467 529.637 24.0681C526.724 23.583 525.409 21.5169 523.293 20.1827C526.274 19.6681 529.254 19.1535 532.127 18.5253C534.384 18.0359 538.484 17.013 538.373 16.7822C534.553 11.1661 509.127 8.64991 499.656 12.7348C496.905 13.8867 493.208 14.6023 490.036 15.5342C489.878 14.0144 489.925 12.4288 489.457 10.9197C489.217 9.98943 487.948 9.21233 487.194 8.35863C485.459 9.00578 482.481 9.57896 482.093 10.2965C480.644 13.163 479.507 16.0773 478.99 18.97C477.787 25.8172 477.992 25.7515 465.085 23.3855C462.796 22.996 459.301 23.5871 456.523 23.9773C450.964 24.6991 443.806 26.9434 440.362 26.0661C429.305 23.401 418.531 22.838 406.28 24.3798C403.81 24.7005 400.172 24.1821 398.079 23.4924C390.858 21.1041 384.525 20.3863 377.427 24.3297C375.703 25.2699 368.273 25.7049 367.006 24.9864C364.475 23.608 362.787 19.7948 363.709 19.528C368.936 18.2311 374.903 17.3777 380.784 16.9967C384.909 16.6769 389.175 17.4081 393.308 17.3227C394.135 17.2939 396.017 14.9989 395.493 14.7825C392.348 13.6015 388.79 12.4349 384.944 11.865C380.889 11.2437 376.228 11.0542 371.781 11.0333C359.162 10.9452 345.827 8.18353 334.785 14.6112C332.253 16.1074 325.218 16.0007 320.174 16.6459C318.613 10.599 302.785 13.3215 296.95 9.18367C294.509 7.45009 283.512 3.55086 279.843 10.8361C279.455 11.5536 275.855 12.0898 273.597 12.5792C271.34 13.0686 268.973 13.3858 266.608 13.7616C268.692 14.2169 270.878 14.61 272.964 15.1239C274.737 15.5315 276.511 15.9976 278.183 16.4673C276.442 16.9387 274.812 17.6408 273.059 17.7606C266.153 18.4121 259.137 18.8327 252.227 19.3669C258.148 20.0992 264.172 20.8278 270.092 21.5601C271.962 21.7882 273.837 22.1921 275.709 22.4789C273.458 23.144 271.225 24.3365 268.953 24.4158C255.211 24.7189 241.356 24.7913 227.61 24.9773C223.681 24.9969 219.541 24.9066 215.73 25.3328C214.185 25.504 212.271 26.92 212.094 27.7476C211.834 29.1646 212.816 30.597 213.279 31.9889C208.212 31.9895 203.044 32.0524 197.977 32.0531C198.239 30.6946 198.606 29.3912 198.764 28.0363C198.836 27.1538 198.495 26.2857 198.36 25.4104C196.303 25.7168 192.791 25.8392 192.395 26.3224C190.715 28.493 188.324 31.0403 189.325 33.0001C189.881 34.0954 196.415 34.6302 200.462 35.0171C203.781 35.312 207.392 35.0688 210.905 35.005C231.169 34.8851 231.692 35.0429 241.072 42.8705C242.031 43.6584 244.937 43.9677 246.206 44.7448C247.262 45.3534 247.3 46.408 247.845 47.2104C235.032 47.4811 243.152 51.8913 241.061 54.1349C236.083 59.5298 231.992 60.7871 220.649 58.7772C218.983 58.4833 215.767 58.1848 215.565 58.3092C207.476 66.3352 189.232 59.3446 177.43 64.7428C171.732 67.3468 167.422 65.385 170.486 70.0889C171.141 71.0634 172.627 72.1262 172.247 73.0781C167.873 83.7906 166.305 94.8746 151.131 104.321C150.119 104.943 146.804 104.765 144.536 104.962C143.344 100.545 136.63 100.779 128.994 101.221C126.207 101.377 120.694 100.454 120.78 99.9819C121.053 96.0417 111.253 90.9274 127.818 88.5898C129.671 88.3492 130.751 86.7276 132.269 85.7947C130.192 85.5737 128.007 85.1806 125.834 85.139C124.179 85.138 122.545 85.723 120.79 85.7842C117.689 85.8336 114.686 85.7037 111.581 85.636C112.043 84.0945 112.608 82.5495 112.969 81.0702C113.148 80.3013 113.726 79.1078 112.995 78.8987C106.313 77.137 88.2812 78.939 85.7006 81.9623C80.1452 88.5506 69.2163 89.4597 57.0822 88.4748C45.4686 87.589 35.3701 88.5864 26.5083 92.3567C23.8607 93.5051 19.6848 95.2933 20.1357 96.3336C21.0289 98.1798 24.4345 100.877 27.5413 101.003C39.0411 101.6 49.9184 105.034 62.6289 101.892C67.0365 100.8 72.7148 100.543 77.7798 100.484C80.5705 100.445 85.3633 101.451 85.5992 102.264C86.1931 104.414 85.3494 106.849 83.7723 109.016C83.4793 109.496 77.9 109.632 74.9998 109.498C67.6438 109.109 60.0414 107.614 53.0309 108.211C43.5458 109.011 33.9972 110.928 25.7048 113.27C23.8688 113.979 27.0148 118.094 26.0657 120.473C24.5452 124.222 20.5439 127.999 30.2474 130.418C28.3144 131.307 26.3793 132.137 24.4463 133.026C22.5112 133.856 20.5761 134.686 18.641 135.516C21.0374 136.019 23.3326 136.585 25.7269 137.029C27.8072 137.367 30.0899 137.581 32.2692 137.798C30.4395 138.684 28.9259 139.734 26.7759 140.337C17.0563 143.257 18.3711 145.323 28.1403 146.684C37.9115 148.103 47.883 149.339 57.6522 150.7C59.0032 150.888 60.0612 151.555 61.3173 151.98C59.8839 152.382 58.5601 152.956 57.1163 153.065C46.3011 154.264 35.5913 155.517 24.7699 156.54C18.9987 157.093 16.3197 157.363 22.8027 159.366C29.3911 161.424 35.676 163.669 41.5539 166.104C42.9175 166.643 43.2037 168.863 42.2846 169.188C39.0153 170.299 33.5393 170.432 31.5177 171.734C27.5735 174.218 24.9908 177.183 23.0279 180.126C22.7327 180.547 28.5709 181.869 31.9031 182.515C34.1941 182.963 36.8815 182.928 39.474 183.131C37.1342 184.21 35.1146 185.571 32.347 186.254C28.7615 187.201 24.5333 187.524 20.8403 188.357C19.9191 188.624 19.042 190.121 19.2527 190.231C24.7832 191.622 30.4525 194.006 36.2425 193.98C43.6871 193.955 45.9614 193.934 42.6767 197.51C40.286 200.058 44.8276 202.715 48.3649 200.421C55.1339 195.961 62.82 199.8 69.2723 198.05C71.0134 197.578 74.6722 198.683 77.4796 199.113C75.576 200.822 74.5362 203.557 71.659 204.068C65.6011 205.276 58.2451 204.887 52.0817 206.041C49.3078 206.548 48.1606 209.17 46.2548 210.82C49.2626 211.067 53.1217 211.989 54.9619 211.397C62.329 209.204 65.2376 209.572 68.5796 213.386C73.54 219.079 76.3202 218.748 84.6049 213.296C85.7159 212.554 90.8736 212.198 92.6483 212.664C101.833 215.042 96.2186 222.865 109.272 223.524C120.46 224.073 132.109 223.08 143.578 222.798C146.369 222.759 149.073 223.193 151.863 223.154C156.412 223.113 162.219 223.556 165.387 222.506C176.928 218.467 187.54 220.267 198.458 221.94C200.017 222.179 201.379 222.66 202.839 223.019C201.206 223.604 199.692 224.654 198.04 224.712C185.652 225.32 186.697 228.51 189.828 232.214C191.879 234.607 193.212 237.2 195.876 239.395C201.732 244.119 189.821 246.471 188.09 250.11C187.9 250.585 185.535 250.961 184.205 251.36C182.355 248.784 180.608 246.205 178.758 243.63C178.214 242.886 176.824 241.585 176.204 241.607C170.23 242.284 160.831 254.169 165.449 256.062C175.207 260.004 170.641 262.451 160.977 264.02C156.145 264.834 147.763 264.657 152.627 267.655C155.483 269.433 151.594 276.374 166.366 273.043C169.855 272.276 176.544 274.272 181.341 275.395C184.469 276.108 170.528 276.652 180.399 277.951C183.931 278.414 188.857 280.237 190.571 276.13C191.619 273.629 211.314 272.062 216.236 273.768C217.388 274.197 218.866 275.026 218.469 275.509C218.075 276.051 216.026 276.591 214.587 276.818C211.189 277.229 207.682 277.469 204.176 277.767C208.234 278.447 212.192 279.248 216.346 279.748C219.668 280.102 223.481 279.734 226.701 280.15C229.089 280.419 230.988 281.467 233.081 282.157C230.83 282.822 228.692 283.777 226.325 284.094C220.666 284.878 214.89 285.314 209.225 285.922C207.783 286.09 206.449 286.371 205.009 286.597C206.265 287.022 207.431 287.803 208.775 287.815C213.33 287.949 218.174 287.487 222.632 287.801C225.949 288.037 231.465 289.019 231.602 289.952C232.275 294.329 243.361 297.814 234.866 303.156C232.842 304.4 234.707 307.385 236.631 309.137C237.701 310.156 242.359 310.287 245.378 310.827C245.652 309.82 246.234 308.744 246.302 307.744C246.53 302.573 246.447 297.355 247.089 292.17C247.256 291.049 249.775 289.201 251.731 288.957C263.674 287.485 262.495 283.419 262.873 279.534C263.031 278.179 264.326 276.785 265.104 275.408C267.816 276.076 270.322 276.752 273.134 277.299C276.363 277.949 279.693 278.537 283.118 278.887C283.533 278.931 285.85 277.208 285.536 277.101C282.807 275.964 279.774 275.014 276.741 274.064C275.801 273.803 274.153 273.978 273.52 273.648C270.683 272.398 268.155 271.078 265.522 269.762C269.55 269.621 274.28 268.87 277.507 269.461C283.756 270.71 289.206 272.749 289.212 267.117C289.21 267.059 293.849 266.662 293.855 266.838C297.134 271.769 305.78 270.646 313.937 270.303C322.505 269.887 331.168 269.233 339.755 269.344C355.998 269.541 359.132 267.554 353.093 260.607C351.369 258.673 350.877 256.46 349.768 254.387C355.052 254.672 360.436 254.837 365.724 255.239C368.525 255.493 372.157 255.836 373.43 256.73C378.747 260.827 382.315 259.412 386.744 256.031C389.262 254.125 392.523 252.779 394.098 256.362C394.661 257.633 397.487 258.59 399.182 259.704C399.863 258.507 400.337 257.317 401.124 256.175C401.817 255.33 402.926 254.528 403.932 253.731C405.506 254.38 407.694 254.831 408.653 255.619C409.614 256.466 409.449 257.645 409.796 258.689C410.949 261.993 410.841 261.879 416.884 260.26C418.626 259.789 422.755 259.586 423.391 260.034C430.164 264.373 442.352 263.948 450.493 266.07C460.517 268.771 465.648 267.654 473.422 265.27C476.491 264.342 480.513 264.026 484.111 263.431C486.257 271.394 492.019 264.798 496.951 263.922C499.725 263.415 503.369 264.109 506.575 264.115C510.609 264.15 516.317 264.714 518.454 263.759C522.93 261.667 523.769 259.115 516.569 257.313C515.214 257.008 517.232 252.714 517.542 252.703C526.844 252.555 538.54 249.976 542.885 255.809C545.599 259.41 550.346 259.127 556.402 257.86C563.176 256.45 569.342 255.356 575.144 258.556C576.832 259.494 581.682 259.208 585.105 259.499C585.364 258.082 587.055 256.205 585.681 255.372C583.883 254.262 579.826 253.582 576.515 253.521C573.307 253.457 569.827 254.459 566.423 254.695C565.185 254.796 563.708 253.968 562.351 253.605C563.259 252.986 564.151 251.899 565.081 251.867C573.756 251.564 582.527 251.024 590.92 251.494C593.613 251.635 594.658 254.825 597.499 256.192C600.34 257.56 603.906 258.961 607.849 259.352C615.218 260.092 623.175 259.932 630.642 260.552C642.777 261.536 647.675 259.723 648.395 253.831C648.552 252.418 650.354 250.771 652.591 249.696C654.216 248.876 667.285 255.754 668.32 255.777C679.09 256.222 676.754 260.293 678.41 263.227C679.335 263.078 680.678 263.031 681.184 262.72C684.618 260.43 691.646 257.427 690.554 255.823C686.747 250.558 699.023 249.719 701.595 246.462C705.597 248.493 709.698 250.403 713.393 252.504C719.199 255.821 724.078 259.23 735.951 255.824C739.227 254.888 745.247 255.5 749.711 255.989C757.081 256.788 764.46 257.822 771.232 259.228C773.941 259.779 775.348 261.549 777.355 262.711C774.465 262.87 771.676 262.968 768.786 263.127C766.413 263.268 764.038 263.351 761.561 263.496C762.631 264.515 764.252 266.453 764.56 266.384C772.784 265.041 774.561 274.248 785.213 268.48C785.443 269.117 785.674 269.813 785.904 270.45C786.262 271.787 785.598 273.453 787.081 274.457C792.067 277.979 792.897 280.942 784.114 284.006C782.172 284.66 782.347 286.649 781.674 288.08C790.447 287.598 799.211 286.882 807.996 286.752C816.988 286.614 813.78 283.676 815.469 281.739C816.064 281.015 818.61 279.928 819.234 280.024C827.251 281.563 829.375 286.007 823.085 289.394C816.896 292.719 822.652 294.63 825.516 296.642C828.805 298.992 832.216 298.931 832.817 295.508C835.509 295.59 838.906 295.178 840.582 295.765C859.527 302.145 868.523 302.124 886.43 296.807C890.728 295.542 895.554 288.803 903.429 295.041C905.261 294.214 908.931 292.737 908.72 292.627C906.077 291.018 902.412 289.737 900.077 288.059C896.897 285.882 894.328 283.449 892.276 280.997C891.736 280.371 893.334 278.79 894.871 278.384C901.937 276.437 915.274 279.257 918.095 282.972C920.483 286.115 923.075 289.193 926.59 292.062C927.656 292.964 932.959 293.776 934.803 293.301C948.328 289.779 965.348 288.599 973.564 281.214C976.968 278.103 984.049 276.566 989.71 278.715C1001.76 283.223 1002.35 279.448 1005.81 275.044C1011.75 267.621 1029 267.02 1041.99 271.612C1052.25 275.244 1057.93 283.67 1078.48 279.961C1089.18 281.407 1092.95 279.809 1088.11 274.58C1086.28 272.649 1085.69 270.499 1084.58 268.484C1088.24 269.413 1091.79 270.345 1095.44 271.215C1096.27 271.421 1097.93 271.422 1098.74 271.159C1107.85 268.319 1114.25 271.029 1121.65 272.531C1125.92 273.379 1131.19 273.43 1135.96 273.792C1136.11 272.203 1135.43 270.525 1136.51 268.962C1137.59 267.282 1140.64 265.826 1142.03 264.135C1144.8 260.694 1154.33 258.191 1160.8 259.902C1166.12 261.3 1170.24 263.621 1174.86 265.572C1169.72 266.338 1164.57 266.986 1159.53 267.807C1157.17 268.183 1154.81 268.793 1152.66 269.513C1152.15 269.707 1152.6 270.513 1152.62 271.04C1154.77 270.672 1157.03 270.065 1159.19 269.931C1163.01 269.739 1167.96 269.156 1170.47 269.949C1177.16 272.062 1190.58 265.61 1192.4 273.056C1194.24 272.405 1195.96 271.407 1197.92 271.221C1205.12 270.383 1212.43 269.307 1219.67 269.348C1222.25 269.375 1224.32 272.178 1226.95 273.553C1228.32 274.209 1231.66 275.148 1232.28 274.892C1235.95 273.474 1240.34 271.971 1242.24 270.086C1245.44 266.983 1246.13 266.255 1247.82 267.252C1261.01 274.536 1275.61 272.15 1291.28 268.024C1294.56 267.147 1299.52 267.15 1303.36 267.369C1305.95 267.513 1308.37 268.719 1310.27 269.651C1311.85 270.475 1312.41 271.688 1313.48 272.707C1314.99 271.656 1318.15 270.373 1317.81 269.563C1315.21 263.377 1326.52 267.324 1330.08 265.733C1332.83 267.338 1336.4 268.739 1337.91 270.564C1339.31 272.216 1338.46 274.3 1338.52 276.233C1342.31 275.045 1346.4 273.905 1349.87 272.552C1352.52 271.521 1354.54 270.101 1356.67 268.795C1367.19 262.327 1366.88 262.455 1377.32 267.899C1379.95 269.274 1384.85 270.277 1388.88 270.312C1390.85 270.361 1393.44 267.806 1395.57 266.383C1397.18 265.271 1398.76 263.104 1400 263.119C1403 263.191 1406.85 263.878 1408.44 264.937C1411.19 266.777 1413.24 269.052 1414.15 271.309C1415.28 274.144 1416.04 274.997 1423.97 274.193C1440.76 272.434 1458.35 272.525 1475.03 270.594C1492.02 268.652 1510.67 266.77 1524.58 262.237C1545.53 255.405 1568.26 254.965 1590.62 252.542C1598.14 251.694 1607.09 250.384 1611.96 247.985C1619.59 244.258 1624.91 242.664 1633.31 246.419C1638.99 248.92 1644.59 249.429 1652.98 246.848C1660.96 244.399 1672.85 241.521 1680.23 242.554C1692.9 244.283 1704.43 242.708 1716.51 242.286C1781.48 239.963 1842.63 232.316 1893.89 211.286C1896.64 210.134 1900.26 207.192 1900.05 207.141C1891.05 204.11 1900.92 202.417 1903.22 200.342C1904.82 198.878 1908.56 196.401 1908.25 196.295C1896.95 192.582 1909.04 189.696 1910.9 186.522C1911.77 185.084 1912.34 183.539 1912.6 182.063C1913.24 176.819 1912.74 171.557 1914.21 166.343C1917.61 154.491 1922.46 142.706 1925.66 130.861C1927.67 120.583 1927.2 110.391 1917.35 100.938Z" fill="#DFF5B0"/>
<path d="M134.39 37.7973C136.953 37.1795 139.832 36.7268 141.971 35.8304C145.229 34.4254 148.018 31.4521 150.909 31.3511C162.171 31.1338 151.532 34.3226 152.927 35.7412C153.249 36.0821 154.904 36.083 155.74 36.3473C158.037 36.9713 160.233 37.6577 162.428 38.344C161.309 38.8526 160.19 39.3612 159.071 39.8698C160.693 41.8674 162.318 43.9236 163.94 45.9212C167.831 44.8462 174.212 44.0364 175.093 42.6557C177.928 38.0961 170.408 33.0764 179.346 28.5971C178.408 28.3951 177.251 27.8486 176.427 27.936C164.811 29.8091 159.264 25.014 150.434 23.8551C145.551 23.2039 138.823 22.9694 134.726 24.0516C131.345 24.9326 130.112 28.0277 128.95 30.2399C128.371 31.3753 129.766 32.7939 130.636 33.996C131.719 35.3668 133.208 36.5473 134.39 37.7973Z" fill="#DFF5B0"/>
</svg>
