<svg width="12" height="12" viewBox="0 0 12 12" fill="none" xmlns="http://www.w3.org/2000/svg">
<path d="M6 12C9.31371 12 12 9.31371 12 6C12 2.68629 9.31371 0 6 0C2.68629 0 0 2.68629 0 6C0 9.31371 2.68629 12 6 12Z" fill="#FFB600"/>
<path d="M5.5385 9.2308C7.5777 9.2308 9.2308 7.5777 9.2308 5.5385C9.2308 3.49929 7.5777 1.84619 5.5385 1.84619C3.49929 1.84619 1.84619 3.49929 1.84619 5.5385C1.84619 7.5777 3.49929 9.2308 5.5385 9.2308Z" fill="#FFB600"/>
<path d="M6.00004 10.1539C8.29049 10.1539 10.1539 8.2905 10.1539 5.99999C10.1539 3.70957 8.29049 1.84619 6.00004 1.84619C3.70959 1.84619 1.84619 3.70957 1.84619 5.99999C1.84619 8.2905 3.70959 10.1539 6.00004 10.1539ZM6.00004 3.11273C7.59216 3.11273 8.88742 4.40798 8.88742 6.00008C8.88742 7.59218 7.59216 8.88751 6.00004 8.88751C4.40792 8.88751 3.11266 7.59226 3.11266 6.00008C3.11266 4.40798 4.40792 3.11273 6.00004 3.11273Z" fill="black"/>
</svg>
